<svg width="20" height="20" viewBox="0 0 20 20" fill="none" xmlns="http://www.w3.org/2000/svg">
<path fill-rule="evenodd" clip-rule="evenodd" d="M9.9752 2.0835C4.6527 2.0835 3.75354 2.86016 3.75354 9.10766C3.75354 16.1018 3.6227 17.9168 4.9527 17.9168C6.28187 17.9168 8.4527 14.8468 9.9752 14.8468C11.4977 14.8468 13.6685 17.9168 14.9977 17.9168C16.3277 17.9168 16.1969 16.1018 16.1969 9.10766C16.1969 2.86016 15.2977 2.0835 9.9752 2.0835Z" fill="#F9D8D8"/>
<path fill-rule="evenodd" clip-rule="evenodd" d="M9.97531 1.4585C8.64083 1.4585 7.53197 1.50607 6.63243 1.69016C5.72159 1.87656 4.97092 2.21356 4.40694 2.8314C3.8496 3.44196 3.53951 4.25635 3.36176 5.26612C3.18434 6.2741 3.12864 7.53963 3.12864 9.10766C3.12864 9.71283 3.12762 10.281 3.12665 10.814C3.1221 13.3346 3.11896 15.0674 3.23261 16.1976C3.30042 16.8719 3.41735 17.4443 3.67444 17.8554C3.81271 18.0764 3.99633 18.2596 4.23476 18.3816C4.46893 18.5014 4.71616 18.5418 4.95281 18.5418C5.49345 18.5418 6.01769 18.2444 6.44085 17.9504C6.85394 17.6634 7.28878 17.2918 7.69999 16.9403L7.79732 16.8572C8.25142 16.4696 8.67792 16.1117 9.07816 15.849C9.49333 15.5764 9.78518 15.4718 9.97531 15.4718C10.1654 15.4718 10.4573 15.5764 10.8725 15.849C11.2727 16.1117 11.6992 16.4696 12.1533 16.8572L12.2506 16.9403C12.6618 17.2918 13.0967 17.6634 13.5098 17.9504C13.9329 18.2444 14.4572 18.5418 14.9978 18.5418C15.2345 18.5418 15.4817 18.5014 15.7159 18.3816C15.9543 18.2596 16.1379 18.0764 16.2762 17.8554C16.5333 17.4443 16.6502 16.8719 16.718 16.1976C16.8317 15.0674 16.8285 13.3346 16.824 10.814V10.814V10.8136C16.823 10.2808 16.822 9.71269 16.822 9.10766C16.822 7.53963 16.7663 6.2741 16.5889 5.26612C16.4111 4.25635 16.101 3.44196 15.5437 2.8314C14.9797 2.21356 14.229 1.87656 13.3182 1.69016C12.4187 1.50607 11.3098 1.4585 9.97531 1.4585ZM4.37864 9.10766C4.37864 7.55194 4.43534 6.37758 4.59284 5.48282C4.75002 4.58986 4.99737 4.03868 5.33014 3.67413C5.65626 3.31686 6.12835 3.06923 6.88305 2.91478C7.64907 2.75801 8.64853 2.7085 9.97531 2.7085C11.3021 2.7085 12.3016 2.75801 13.0676 2.91478C13.8223 3.06923 14.2944 3.31686 14.6205 3.67413C14.9533 4.03868 15.2006 4.58986 15.3578 5.48282C15.5153 6.37758 15.572 7.55194 15.572 9.10766C15.572 9.72736 15.573 10.3046 15.5739 10.8421V10.8426V10.8426C15.5781 13.3641 15.5809 15.0118 15.4743 16.0725C15.4085 16.7262 15.3088 17.0448 15.2164 17.1925C15.1799 17.2509 15.1555 17.2642 15.1465 17.2688C15.1333 17.2755 15.0937 17.2918 14.9978 17.2918C14.8739 17.2918 14.6283 17.2055 14.223 16.9239C13.8637 16.6742 13.4751 16.3423 13.0484 15.9778L12.9648 15.9065C12.5198 15.5266 12.035 15.1169 11.5585 14.8041C11.0969 14.501 10.5464 14.2218 9.97531 14.2218C9.40419 14.2218 8.85374 14.501 8.39214 14.8041C7.91561 15.1169 7.43087 15.5266 6.98579 15.9065L6.90226 15.9778L6.90224 15.9778C6.47553 16.3423 6.08687 16.6742 5.72758 16.9239C5.3223 17.2055 5.07675 17.2918 4.95281 17.2918C4.85696 17.2918 4.81734 17.2755 4.80409 17.2688C4.79511 17.2642 4.77075 17.2509 4.73425 17.1925C4.64181 17.0448 4.54207 16.7262 4.47634 16.0725C4.36968 15.0118 4.37247 13.3641 4.37675 10.8426V10.8426C4.37766 10.3049 4.37864 9.72756 4.37864 9.10766ZM7.11884 7.05658C6.77366 7.05658 6.49384 7.3364 6.49384 7.68158C6.49384 8.02676 6.77366 8.30658 7.11884 8.30658H12.8313C13.1765 8.30658 13.4563 8.02676 13.4563 7.68158C13.4563 7.3364 13.1765 7.05658 12.8313 7.05658H7.11884Z" fill="#E23E3E"/>
</svg>
