<svg width="22" height="22" viewBox="0 0 22 22" fill="none" xmlns="http://www.w3.org/2000/svg">
<path fill-rule="evenodd" clip-rule="evenodd" d="M10.973 1.88867C9.54957 1.88867 8.36678 1.93941 7.40728 2.13578C6.43572 2.33461 5.63499 2.69408 5.03341 3.35311C4.43893 4.00436 4.10816 4.87305 3.91856 5.95014C3.72931 7.02531 3.6699 8.37521 3.6699 10.0478C3.6699 10.6933 3.66881 11.2994 3.66778 11.8679C3.66292 14.5565 3.65958 16.4049 3.7808 17.6104C3.85313 18.3296 3.97785 18.9402 4.25209 19.3787C4.39957 19.6145 4.59544 19.8099 4.84976 19.94C5.09954 20.0678 5.36325 20.1109 5.61568 20.1109C6.19237 20.1109 6.75155 19.7937 7.20292 19.48C7.64355 19.1739 8.10738 18.7775 8.54601 18.4026L8.64983 18.314C9.13419 17.9005 9.58913 17.5188 10.0161 17.2385C10.4589 16.9478 10.7702 16.8362 10.973 16.8362C11.1758 16.8362 11.4871 16.9478 11.93 17.2385C12.3569 17.5188 12.8118 17.9005 13.2962 18.314L13.4 18.4026L13.4 18.4027C13.8387 18.7775 14.3025 19.1739 14.7431 19.48C15.1945 19.7937 15.7537 20.1109 16.3303 20.1109C16.5828 20.1109 16.8465 20.0678 17.0963 19.94C17.3506 19.8099 17.5465 19.6145 17.6939 19.3787C17.9682 18.9402 18.0929 18.3296 18.1652 17.6104C18.2864 16.4049 18.2831 14.5565 18.2782 11.8679V11.8679C18.2772 11.2994 18.2761 10.6933 18.2761 10.0478C18.2761 8.37521 18.2167 7.02531 18.0275 5.95014C17.8379 4.87305 17.5071 4.00436 16.9126 3.35311C16.311 2.69408 15.5103 2.33461 14.5387 2.13578C13.5792 1.93941 12.3965 1.88867 10.973 1.88867ZM5.00323 10.0478C5.00323 8.38835 5.06371 7.1357 5.23171 6.18128C5.39937 5.2288 5.66321 4.64087 6.01817 4.25202C6.36603 3.87093 6.86959 3.60679 7.67461 3.44204C8.49169 3.27482 9.55778 3.22201 10.973 3.22201C12.3882 3.22201 13.4543 3.27482 14.2714 3.44204C15.0764 3.60679 15.58 3.87093 15.9279 4.25202C16.2828 4.64087 16.5467 5.2288 16.7143 6.18128C16.8823 7.1357 16.9428 8.38835 16.9428 10.0478C16.9428 10.709 16.9438 11.3249 16.9448 11.8984C16.9494 14.588 16.9523 16.3455 16.8386 17.477C16.7685 18.1743 16.6621 18.514 16.5635 18.6717C16.5245 18.7339 16.4986 18.7481 16.489 18.753C16.4748 18.7602 16.4326 18.7776 16.3303 18.7776C16.1981 18.7776 15.9362 18.6855 15.5039 18.3851C15.1207 18.1188 14.7061 17.7647 14.2509 17.3759L14.1618 17.2998C13.6871 16.8946 13.17 16.4576 12.6617 16.1239C12.1693 15.8007 11.5822 15.5029 10.973 15.5029C10.3638 15.5029 9.77667 15.8007 9.2843 16.1239C8.776 16.4576 8.25894 16.8946 7.7842 17.2998L7.69509 17.3759L7.69503 17.376C7.23989 17.7647 6.82533 18.1188 6.4421 18.3851C6.0098 18.6855 5.74788 18.7776 5.61568 18.7776C5.51344 18.7776 5.47118 18.7602 5.45704 18.753C5.44746 18.7481 5.42148 18.7339 5.38254 18.6717C5.28395 18.514 5.17756 18.1743 5.10744 17.477C4.99367 16.3456 4.99665 14.588 5.00122 11.8984C5.00219 11.3249 5.00323 10.709 5.00323 10.0478ZM7.92611 7.85996C7.55792 7.85996 7.25944 8.15844 7.25944 8.52663C7.25944 8.89482 7.55792 9.19329 7.92611 9.19329H14.0194C14.3876 9.19329 14.6861 8.89482 14.6861 8.52663C14.6861 8.15844 14.3876 7.85996 14.0194 7.85996H7.92611Z" fill="#303030"/>
</svg>
