<svg width="16" height="16" viewBox="0 0 16 16" fill="none" xmlns="http://www.w3.org/2000/svg">
<path fill-rule="evenodd" clip-rule="evenodd" d="M5.95017 10.9268H9.54093C9.81156 10.9268 10.036 10.7002 10.036 10.4268C10.036 10.1535 9.81156 9.9335 9.54093 9.9335H5.95017C5.67954 9.9335 5.45512 10.1535 5.45512 10.4268C5.45512 10.7002 5.67954 10.9268 5.95017 10.9268ZM8.18119 6.60016H5.95017C5.67954 6.60016 5.45512 6.82683 5.45512 7.10016C5.45512 7.3735 5.67954 7.5935 5.95017 7.5935H8.18119C8.45182 7.5935 8.67624 7.3735 8.67624 7.10016C8.67624 6.82683 8.45182 6.60016 8.18119 6.60016ZM12.8917 6.01724C13.0469 6.01545 13.2158 6.0135 13.3693 6.0135C13.5343 6.0135 13.6663 6.14683 13.6663 6.3135V11.6735C13.6663 13.3268 12.3396 14.6668 10.7026 14.6668H5.44852C3.73235 14.6668 2.33301 13.2602 2.33301 11.5268V4.34016C2.33301 2.68683 3.66634 1.3335 5.30991 1.3335H8.83466C9.00628 1.3335 9.13829 1.4735 9.13829 1.64016V3.78683C9.13829 5.00683 10.135 6.00683 11.3429 6.0135C11.6251 6.0135 11.8738 6.0156 12.0915 6.01745C12.2608 6.01889 12.4114 6.02016 12.5442 6.02016C12.6382 6.02016 12.76 6.01876 12.8917 6.01724ZM13.0737 5.04416C12.5312 5.04616 11.8916 5.04416 11.4315 5.0395C10.7015 5.0395 10.1001 4.43216 10.1001 3.69483V1.9375C10.1001 1.65016 10.4454 1.5075 10.6427 1.71483C10.9999 2.08999 11.4909 2.60569 11.9795 3.11902C12.4669 3.63101 12.9521 4.14065 13.3001 4.50616C13.4929 4.70816 13.3516 5.0435 13.0737 5.04416Z" fill="#31B057"/>
</svg>
